# xmcd
# Track frame offsets:
# 150
# 11909
# 21485
# 33398
# 44544
# 54166
# 64346
# 73995
# 86302
# 96738
# 108513
# 118142
#
# Disc length: 1686 seconds
# Revision: 3
# Processed by: cddbd v1.5.2PL0 Copyright (c) Steve Scherf et al.
# Submitted via: VisiTrax 2.11.2.271 - For more info visit www.synapsa.com
#
DISCID=b006940c
DTITLE=Slim Dusty - Sing A Happy Song
DYEAR=1970
DGENRE=Australian Country
TTITLE0=Sing A Happy Song
TTITLE1=If You Fall Out Of Love With Me
TTITLE2=Big Beggin' Fool
TTITLE3=Set'em Up (Pop A Top)
TTITLE4=Step Down From This Mountain
TTITLE5=I'm Layin' It On The Line
TTITLE6=Paralyse My Mind
TTITLE7=He Don't Deserve You Anymore
TTITLE8=I Ain't A-Gonna Be Treated This A-Way
TTITLE9=Cinderella
TTITLE10=Sugar Shed Lane
TTITLE11=Hello Trouble
EXTD=1970, 1996 EMI Music Australia
EXTT0=
EXTT1=
EXTT2=
EXTT3=
EXTT4=
EXTT5=
EXTT6=
EXTT7=
EXTT8=
EXTT9=
EXTT10=
EXTT11=
PLAYORDER=
